<svg xmlns="http://www.w3.org/2000/svg" viewBox="0 0 64 64" fill="none">
  <!-- Dark background circle -->
  <circle cx="32" cy="32" r="32" fill="#121212"/>

  <!-- Flame: outer (Spotify green) -->
  <path d="M32 8
    C32 8 22 18 20 28
    C18.5 35 21 38 21 38
    C21 38 20 33 24 30
    C24 30 22 40 28 45
    C28 45 26 40 30 37
    C30 37 28 48 32 54
    C36 48 34 37 34 37
    C38 40 36 45 36 45
    C42 40 40 30 40 30
    C44 33 43 38 43 38
    C43 38 45.5 35 44 28
    C42 18 32 8 32 8Z"
    fill="#1DB954"/>

  <!-- Flame: inner highlight (lighter green) -->
  <path d="M32 22
    C32 22 27 29 26.5 34
    C26 38 28 40 28 40
    C28 40 27.5 37 30 35
    C30 35 29 42 32 46
    C35 42 34 35 34 35
    C36.5 37 36 40 36 40
    C36 40 38 38 37.5 34
    C37 29 32 22 32 22Z"
    fill="#1ed760" opacity="0.7"/>
</svg>
